# File produced by Open Asset Import Library (http://www.assimp.sf.net)
# (assimp v3.1.151885474)

mtllib torre.mtl

# vertex positions
v -1894.197632 3915.712891 2254.843994
v -1894.197632 4095.356445 2254.843994
v -1894.197632 4095.356201 2007.799683
v -1894.197632 3915.712646 2007.799683
v -1647.152710 4095.356201 2007.799683
v -1647.152710 3915.712646 2007.799683
v -1647.152710 4095.356445 2254.843994
v -1647.152710 3915.712891 2254.843994
v -1990.786011 3915.712891 2351.432861
v -1550.563965 3915.712891 2351.432861
v -1959.884644 4095.356445 2320.531494
v -1581.465576 4095.356445 2320.531494
v -1541.018433 4095.356445 2360.978271
v -2000.331543 4095.356445 2360.978271
v -1581.465576 4095.356201 1942.112183
v -1959.884644 4095.356201 1942.112183
v -2000.331543 4095.356201 1901.665283
v -1541.018433 4095.356201 1901.665283
v -1541.018433 4145.132324 1901.665161
v -1541.018433 4145.132324 2360.978271
v -2000.331543 4145.132324 2360.978271
v -2000.331543 4145.132324 1901.665161
v -1682.856567 4165.951660 2043.503052
v -1682.856567 4165.951660 2219.140381
v -1858.493652 4165.951660 2219.140381
v -1858.493652 4165.951660 2043.503052
v -1550.563965 3915.712646 1911.210815
v -1990.786011 3915.712646 1911.210815
v -1550.563965 3876.454102 1911.210815
v -1990.786011 3876.454102 1911.210815
v -1550.563965 3876.454346 2351.432861
v -1990.786011 3876.454346 2351.432861
v -1592.713867 3177.482178 1930.863281
v -1570.217407 3177.482178 1930.863281
v -1570.217407 3177.482178 1953.359863
v -1592.713867 3177.482178 1953.359863
v -1570.217407 4112.193359 1930.863159
v -1592.713867 4112.193359 1930.863159
v -1592.713867 4112.193359 1953.359741
v -1570.217407 4112.193359 1953.359741
v -1948.636230 3177.482178 1930.863281
v -1948.636230 3177.482178 1953.359863
v -1971.132813 3177.482178 1953.359863
v -1971.132813 3177.482178 1930.863281
v -1971.132813 4112.193359 1930.863159
v -1971.132813 4112.193359 1953.359741
v -1948.636230 4112.193359 1953.359741
v -1948.636230 4112.193359 1930.863159
v -1592.713867 3177.482422 2331.780029
v -1592.713867 3177.482422 2309.283691
v -1570.217407 3177.482422 2309.283691
v -1570.217407 3177.482422 2331.780029
v -1570.217407 4112.193359 2331.779785
v -1570.217407 4112.193359 2309.283447
v -1592.713867 4112.193359 2309.283447
v -1592.713867 4112.193359 2331.779785
v -1948.636230 3177.482422 2331.780029
v -1971.132813 3177.482422 2331.780029
v -1971.132813 3177.482422 2309.283691
v -1948.636230 3177.482422 2309.283691
v -1971.132813 4112.193359 2331.779785
v -1948.636230 4112.193359 2331.779785
v -1948.636230 4112.193359 2309.283447
v -1971.132813 4112.193359 2309.283447
v -1577.299561 3931.933350 1953.359985
v -1577.299561 3946.698975 1953.359985
v -1577.299561 3946.698975 2131.321777
v -1577.299561 3931.933350 2131.321777
v -1592.714233 3931.933350 1937.945190
v -1592.714233 3931.933350 1946.277954
v -1770.675049 3931.933350 1946.277954
v -1770.675049 3931.933350 1937.945190
v -1592.714233 3946.698975 1937.945190
v -1770.675049 3946.698975 1937.945190
v -1585.632446 3946.698975 1953.359985
v -1585.632446 3946.698975 2131.321777
v -1592.714233 3946.698975 1946.277954
v -1770.675049 3946.698975 1946.277954
v -1585.632446 3931.933350 1953.359985
v -1585.632446 3931.933350 2131.321777
v -1592.714233 3957.981689 1937.945190
v -1592.714233 3957.981689 1946.277954
v -1770.675049 3957.981689 1946.277954
v -1770.675049 3957.981689 1937.945190
v -1577.299561 3957.981689 1953.359985
v -1577.299561 3972.746826 1953.359985
v -1577.299561 3972.746826 2131.321777
v -1577.299561 3957.981689 2131.321777
v -1592.714233 3972.746826 1937.945190
v -1770.675049 3972.746826 1937.945190
v -1585.632446 3972.746826 1953.359985
v -1585.632446 3972.746826 2131.321777
v -1592.714233 3972.746826 1946.277954
v -1770.675049 3972.746826 1946.277954
v -1585.632446 3957.981689 1953.359985
v -1585.632446 3957.981689 2131.321777
v -1964.050659 3931.933350 1953.359985
v -1964.050659 3931.933350 2131.321777
v -1964.050659 3946.698975 2131.321777
v -1964.050659 3946.698975 1953.359985
v -1948.636108 3931.933350 1937.945190
v -1948.636108 3931.933350 1946.277954
v -1948.636108 3946.698975 1937.945190
v -1955.717896 3946.698975 2131.321777
v -1955.717896 3946.698975 1953.359985
v -1948.636108 3946.698975 1946.277954
v -1955.717896 3931.933350 1953.359985
v -1955.717896 3931.933350 2131.321777
v -1948.636108 3957.981689 1937.945190
v -1948.636108 3957.981689 1946.277954
v -1964.050659 3957.981689 1953.359985
v -1964.050659 3957.981689 2131.321777
v -1964.050659 3972.746826 2131.321777
v -1964.050659 3972.746826 1953.359985
v -1948.636108 3972.746826 1937.945190
v -1955.717896 3972.746826 2131.321777
v -1955.717896 3972.746826 1953.359985
v -1948.636108 3972.746826 1946.277954
v -1955.717896 3957.981689 1953.359985
v -1955.717896 3957.981689 2131.321777
v -1577.299561 3931.933594 2309.283691
v -1577.299561 3946.699219 2309.283691
v -1592.714355 3931.933594 2324.698730
v -1770.675049 3931.933594 2324.698730
v -1770.675049 3931.933594 2316.365967
v -1592.714355 3931.933594 2316.365479
v -1592.714355 3946.699219 2324.698730
v -1770.675049 3946.699219 2324.698730
v -1585.632446 3946.699219 2309.283691
v -1770.675049 3946.699219 2316.365967
v -1592.714355 3946.699219 2316.365479
v -1585.632446 3931.933594 2309.283691
v -1592.714355 3957.981934 2324.698730
v -1770.675049 3957.981934 2324.698730
v -1770.675049 3957.981934 2316.365967
v -1592.714355 3957.981934 2316.365479
v -1577.299561 3957.981934 2309.283691
v -1577.299561 3972.747070 2309.283691
v -1592.714355 3972.747070 2324.698730
v -1770.675049 3972.747070 2324.698730
v -1585.632446 3972.747070 2309.283691
v -1770.675049 3972.747070 2316.365967
v -1592.714355 3972.747070 2316.365479
v -1585.632446 3957.981934 2309.283691
v -1964.050659 3931.933594 2309.283691
v -1964.050659 3946.699219 2309.283691
v -1948.636108 3931.933594 2324.698730
v -1948.636108 3931.933594 2316.365479
v -1948.636108 3946.699219 2324.698730
v -1955.717896 3946.699219 2309.283691
v -1948.636108 3946.699219 2316.365479
v -1955.717896 3931.933594 2309.283691
v -1948.636108 3957.981934 2324.698730
v -1948.636108 3957.981934 2316.365479
v -1964.050659 3957.981934 2309.283691
v -1964.050659 3972.747070 2309.283691
v -1948.636108 3972.747070 2324.698730
v -1955.717896 3972.747070 2309.283691
v -1948.636108 3972.747070 2316.365479
v -1955.717896 3957.981934 2309.283691
v -1661.397705 3177.482178 1999.894043
v -1638.901123 3177.482178 1999.894043
v -1638.901123 3177.482178 2022.390625
v -1661.397705 3177.482178 2022.390625
v -1638.901123 4095.356201 1999.893921
v -1661.397705 4095.356201 1999.893921
v -1661.397705 4095.356201 2022.390503
v -1638.901123 4095.356201 2022.390503
v -1879.952759 3177.482178 1999.894043
v -1879.952759 3177.482178 2022.390625
v -1902.449219 3177.482178 2022.390625
v -1902.449219 3177.482178 1999.894043
v -1902.449219 4095.356201 1999.893921
v -1902.449219 4095.356201 2022.390503
v -1879.952759 4095.356201 2022.390503
v -1879.952759 4095.356201 1999.893921
v -1661.397705 3177.482422 2262.749756
v -1661.397705 3177.482178 2240.253174
v -1638.901123 3177.482178 2240.253174
v -1638.901123 3177.482422 2262.749756
v -1638.901123 4095.356445 2262.749512
v -1638.901123 4095.356201 2240.252930
v -1661.397705 4095.356201 2240.252930
v -1661.397705 4095.356445 2262.749512
v -1879.952759 3177.482422 2262.749756
v -1902.449219 3177.482422 2262.749756
v -1902.449219 3177.482178 2240.253174
v -1879.952759 3177.482178 2240.253174
v -1902.449219 4095.356445 2262.749512
v -1879.952759 4095.356445 2262.749512
v -1879.952759 4095.356201 2240.252930
v -1902.449219 4095.356201 2240.252930
v -1864.486694 3748.595703 2013.390503
v -1864.487061 3866.327148 2013.390869
v -1868.808594 3881.080811 2023.823486
v -1868.807983 3733.841553 2023.822876
v -1889.672852 3733.841553 2002.958130
v -1889.672852 3881.080811 2002.958130
v -1673.995361 3866.327148 2013.390137
v -1663.614502 3881.080811 2023.822510
v -1642.749268 3881.080811 2002.958130
v -1653.181885 3895.834717 2013.390137
v -1879.240601 3895.834717 2013.390869
v -1704.880005 3748.595703 2017.711548
v -1694.421753 3733.841553 2032.465332
v -1694.421753 3733.841553 2002.958130
v -1653.181274 3264.076416 2028.144775
v -1653.181641 3309.968018 2028.144165
v -1663.614136 3324.722168 2023.822998
v -1663.613525 3177.482910 2023.823608
v -1642.749268 3177.482910 2002.958252
v -1642.749268 3324.722168 2002.958252
v -1657.502930 3309.968018 2033.817627
v -1672.256714 3324.722168 2054.631104
v -1642.749268 3324.722168 2054.631104
v -1667.935547 3264.076416 2239.449951
v -1667.935181 3309.968018 2239.449463
v -1663.614136 3324.722168 2229.016846
v -1663.614502 3177.482910 2229.017578
v -1642.749268 3177.483154 2249.881836
v -1642.749268 3324.722412 2249.881836
v -1673.608154 3309.968018 2235.128418
v -1694.421753 3324.722168 2220.374756
v -1694.421753 3324.722412 2249.881836
v -1879.240601 3192.236572 2218.635498
v -1874.919189 3309.968018 2187.750977
v -1860.165405 3324.722168 2198.208984
v -1868.808594 3177.482910 2229.016602
v -1889.672852 3177.483154 2249.881836
v -1889.672852 3324.722168 2198.208984
v -1879.240479 3309.968018 2028.144165
v -1868.807983 3324.722168 2023.822998
v -1889.672852 3324.722168 2002.958252
v -1879.240234 3192.236572 2028.144165
v -1868.807373 3177.482910 2023.822632
v -1889.672852 3177.482910 2002.958252
v -1879.240601 3162.729248 2239.448975
v -1879.240234 3162.729248 2013.390259
v -1653.181274 3192.236572 2034.204590
v -1657.502930 3309.968018 2065.088867
v -1653.181641 3309.968018 2224.695801
v -1653.181885 3192.236572 2224.695801
v -1653.181274 3162.729248 2013.390991
v -1653.181885 3162.729248 2239.449951
v -1673.608154 3748.595703 2017.711548
v -1667.935547 3794.486816 2013.390137
v -1667.935181 3748.595703 2013.390503
v -1663.614136 3733.841553 2023.822876
v -1642.749268 3733.841553 2002.958130
v -1858.813721 3748.595703 2235.128174
v -1864.486450 3794.486816 2239.449707
v -1868.807373 3881.080811 2229.017334
v -1838.000122 3733.841553 2220.374756
v -1838.000122 3733.841797 2249.881836
v -1889.672852 3881.081055 2249.881592
v -1864.486694 3748.595703 2239.449219
v -1868.807983 3733.841553 2229.016846
v -1889.672852 3733.841797 2249.881836
v -1874.919189 3748.595703 2033.817505
v -1879.240601 3794.486816 2028.144653
v -1860.165405 3733.841553 2054.631104
v -1889.672852 3733.841553 2054.631104
v -1879.240479 3748.595703 2028.144043
v -1653.181641 3748.595703 2028.144043
v -1653.181885 3866.327148 2028.144043
v -1653.181274 3866.327148 2218.635254
v -1663.613525 3881.080811 2229.016357
v -1642.749268 3881.081055 2249.881592
v -1653.181274 3895.834717 2239.448730
v -1657.502930 3748.595703 2187.750732
v -1672.256714 3733.841553 2198.208984
v -1642.749268 3733.841553 2198.208984
v -1858.426636 3192.236572 2013.390259
v -1827.542114 3309.968018 2017.711670
v -1838.000122 3324.722168 2032.465454
v -1838.000122 3324.722168 2002.958252
v -1667.935181 3309.968018 2013.390625
v -1667.934937 3192.236572 2013.390991
v -1657.502930 3748.595703 2219.022217
v -1653.181274 3794.486816 2224.695068
v -1653.181641 3748.595703 2224.695557
v -1663.614136 3733.841553 2229.016846
v -1642.749268 3733.841797 2249.881836
v -1879.240479 3748.595703 2224.695557
v -1879.240234 3866.327148 2224.695557
v -1879.240601 3866.327148 2034.204468
v -1879.240234 3895.834717 2239.449707
v -1874.919189 3748.595703 2065.088623
v -1879.240601 3264.076416 2224.695313
v -1879.240479 3309.968018 2224.695801
v -1868.807983 3324.722168 2229.016846
v -1889.672852 3324.722412 2249.881836
v -1874.919189 3309.968018 2219.022461
v -1864.486450 3264.076416 2013.390259
v -1864.486694 3309.968018 2013.390625
v -1858.813721 3309.968018 2017.711670
v -1673.995361 3192.236572 2239.449951
v -1704.880005 3309.968018 2235.128418
v -1864.486694 3309.968018 2239.449463
v -1864.487061 3192.236572 2239.448975
v -1864.486694 3719.088135 2013.390503
v -1715.235352 3719.088135 2017.711548
v -1848.458252 3339.475586 2017.711670
v -1864.486694 3339.475586 2013.390625
v -1683.963745 3719.088135 2017.711548
v -1667.935181 3719.088135 2013.390503
v -1667.935181 3339.475586 2013.390625
v -1817.186523 3339.475586 2017.711670
v -1653.181641 3719.088135 2028.144043
v -1657.502930 3719.088135 2177.395264
v -1657.502930 3339.475586 2044.172729
v -1653.181641 3339.475586 2028.144165
v -1657.502930 3719.088135 2208.667236
v -1653.181641 3719.088135 2224.695801
v -1653.181641 3339.475586 2224.695801
v -1657.502930 3339.475586 2075.444580
v -1848.458252 3719.088135 2235.128418
v -1864.486694 3719.088135 2239.449463
v -1864.486694 3339.475586 2239.449463
v -1715.235352 3339.475586 2235.128418
v -1667.935181 3719.088135 2239.449463
v -1817.186523 3719.088135 2235.128418
v -1683.963745 3339.475586 2235.128418
v -1667.935181 3339.475586 2239.449463
v -1874.919189 3719.088135 2044.172607
v -1879.240479 3719.088135 2028.144043
v -1879.240479 3339.475586 2028.144165
v -1874.919189 3339.475586 2177.395264
v -1879.240479 3719.088135 2224.695801
v -1874.919189 3719.088135 2075.444580
v -1874.919189 3339.475586 2208.667236
v -1879.240479 3339.475586 2224.695801
v -1667.935181 3748.595703 2239.449219
v -1667.934937 3866.327148 2239.448730
v -1858.426636 3866.327148 2239.449707
v -1827.542114 3748.595703 2235.128174

# UV coordinates
vt 0.470090 0.741084
vt 0.393198 0.741084
vt 0.393198 0.635342
vt 0.470090 0.635342
vt 0.637867 0.733082
vt 0.560975 0.733082
vt 0.560975 0.627340
vt 0.637867 0.627340
vt 0.554280 0.742300
vt 0.477387 0.742300
vt 0.477387 0.636558
vt 0.554280 0.636558
vt 0.723942 0.733413
vt 0.647049 0.733413
vt 0.647049 0.627670
vt 0.723942 0.627670
vt 0.147085 0.237942
vt 0.041343 0.237942
vt 0.000000 0.196599
vt 0.188427 0.196599
vt 0.179287 0.017312
vt 0.017313 0.017312
vt 0.000000 0.000000
vt 0.196599 0.000000
vt 0.017313 0.179287
vt 0.179286 0.179287
vt 0.196599 0.196599
vt 0.000000 0.196599
vt 0.343571 0.385026
vt 0.343571 0.581625
vt 0.322265 0.581625
vt 0.322265 0.385026
vt 0.364876 0.385026
vt 0.364876 0.581625
vt 0.343571 0.581625
vt 0.343571 0.385026
vt 0.386182 0.385026
vt 0.386182 0.581625
vt 0.364876 0.581625
vt 0.364876 0.385026
vt 0.343571 0.778224
vt 0.322265 0.778224
vt 0.393198 0.000000
vt 0.393198 0.196599
vt 0.332487 0.135888
vt 0.332487 0.060711
vt 0.196599 0.196599
vt 0.196599 0.000000
vt 0.257309 0.060711
vt 0.257309 0.135888
vt 0.151171 0.151170
vt 0.151171 0.045429
vt 0.045428 0.045428
vt 0.045428 0.151170
vt 0.041343 0.343684
vt 0.147085 0.343684
vt 0.188427 0.385026
vt 0.000000 0.385026
vt 0.243425 0.881952
vt 0.243425 0.693525
vt 0.260229 0.693525
vt 0.260229 0.881952
vt 0.178843 0.880637
vt 0.178843 0.692209
vt 0.195646 0.692209
vt 0.195646 0.880637
vt 0.195646 0.880637
vt 0.195646 0.692209
vt 0.212450 0.692209
vt 0.212450 0.880637
vt 0.212450 0.880636
vt 0.212450 0.692209
vt 0.229254 0.692209
vt 0.229254 0.880636
vt 0.376855 0.385026
vt 0.188427 0.385026
vt 0.188427 0.196599
vt 0.376855 0.196599
vt 0.618752 0.316414
vt 0.609123 0.316414
vt 0.609123 0.306785
vt 0.618752 0.306785
vt 0.628381 0.316414
vt 0.618752 0.316414
vt 0.618752 0.306785
vt 0.628381 0.306785
vt 0.894079 0.800165
vt 0.894079 0.400082
vt 0.903708 0.400082
vt 0.903708 0.800165
vt 0.817044 0.400083
vt 0.817045 0.000000
vt 0.826674 0.000000
vt 0.826674 0.400083
vt 0.865191 0.400082
vt 0.855561 0.400082
vt 0.855561 -0.000000
vt 0.865191 -0.000000
vt 0.884449 0.800165
vt 0.884449 0.400082
vt 0.894078 0.400082
vt 0.894078 0.800165
vt 0.376855 0.381269
vt 0.376855 0.371640
vt 0.386484 0.371640
vt 0.386484 0.381270
vt 0.560977 0.316414
vt 0.560977 0.306785
vt 0.570606 0.306785
vt 0.570606 0.316414
vt 0.874820 0.400082
vt 0.865191 0.400082
vt 0.865191 -0.000000
vt 0.874820 -0.000000
vt 0.884449 0.400082
vt 0.884449 -0.000000
vt 0.826674 0.400083
vt 0.826674 0.000000
vt 0.836303 0.000000
vt 0.836303 0.400083
vt 0.845932 0.400083
vt 0.836303 0.400083
vt 0.836303 0.000000
vt 0.845932 0.000000
vt 0.695195 0.310926
vt 0.704824 0.310926
vt 0.704824 0.320555
vt 0.695195 0.320555
vt 0.704824 0.310926
vt 0.714453 0.310926
vt 0.714453 0.320555
vt 0.704824 0.320555
vt 0.903708 0.400083
vt 0.894079 0.400083
vt 0.894079 0.000000
vt 0.903708 0.000000
vt 0.922966 0.400082
vt 0.913337 0.400082
vt 0.913337 -0.000000
vt 0.922966 -0.000000
vt 0.903708 0.000000
vt 0.913337 0.000000
vt 0.913337 0.400083
vt 0.922966 0.800165
vt 0.913337 0.800165
vt 0.922966 0.400083
vt 0.628381 0.316414
vt 0.628381 0.306785
vt 0.638011 0.306785
vt 0.638011 0.316414
vt 0.647049 0.320555
vt 0.647049 0.310926
vt 0.656678 0.310926
vt 0.656678 0.320555
vt 0.845932 0.400083
vt 0.845932 0.000000
vt 0.855561 0.000000
vt 0.855561 0.400083
vt 0.903708 0.800165
vt 0.932595 0.400082
vt 0.932595 -0.000000
vt 0.884449 0.400082
vt 0.884449 -0.000000
vt 0.894079 -0.000000
vt 0.393185 0.348944
vt 0.386865 0.348944
vt 0.386865 0.272772
vt 0.393185 0.272772
vt 0.882499 0.728238
vt 0.878933 0.728238
vt 0.878933 0.652066
vt 0.882499 0.652066
vt 0.386864 0.653635
vt 0.393185 0.653635
vt 0.393185 0.729807
vt 0.386864 0.729807
vt 0.862786 0.552428
vt 0.859219 0.552428
vt 0.859219 0.476255
vt 0.862786 0.476255
vt 0.560600 0.788902
vt 0.554280 0.788902
vt 0.554280 0.712730
vt 0.560600 0.712730
vt 0.878933 0.728239
vt 0.882499 0.728239
vt 0.882499 0.804411
vt 0.878933 0.804411
vt 0.866353 0.552428
vt 0.862786 0.552428
vt 0.862786 0.476255
vt 0.866353 0.476255
vt 0.386864 0.348944
vt 0.393185 0.348944
vt 0.393185 0.425117
vt 0.386864 0.425117
vt 0.884186 0.552427
vt 0.880619 0.552427
vt 0.880619 0.476255
vt 0.884186 0.476255
vt 0.290566 0.845870
vt 0.284246 0.845870
vt 0.284246 0.769698
vt 0.290566 0.769698
vt 0.315845 0.693525
vt 0.322165 0.693525
vt 0.322165 0.769697
vt 0.315845 0.769697
vt 0.869919 0.552428
vt 0.866353 0.552428
vt 0.866353 0.476255
vt 0.869919 0.476255
vt 0.315846 0.845870
vt 0.309526 0.845870
vt 0.309526 0.769697
vt 0.315846 0.769697
vt 0.596198 0.733082
vt 0.599765 0.733082
vt 0.599765 0.809254
vt 0.596198 0.809254
vt 0.873486 0.552428
vt 0.869919 0.552428
vt 0.869919 0.476255
vt 0.873486 0.476255
vt 0.290566 0.693525
vt 0.296886 0.693525
vt 0.296886 0.769698
vt 0.290566 0.769698
vt 0.393185 0.501290
vt 0.393185 0.577462
vt 0.386864 0.577462
vt 0.386864 0.501290
vt 0.882499 0.575893
vt 0.878933 0.575893
vt 0.386864 0.805979
vt 0.393184 0.805979
vt 0.873486 0.552428
vt 0.873486 0.476255
vt 0.877053 0.476255
vt 0.877053 0.552428
vt 0.560600 0.636558
vt 0.554280 0.636558
vt 0.878933 0.880583
vt 0.882499 0.880583
vt 0.875366 0.728239
vt 0.875366 0.652066
vt 0.878933 0.652066
vt 0.878933 0.728239
vt 0.470090 0.787688
vt 0.470090 0.711515
vt 0.476410 0.711515
vt 0.476410 0.787688
vt 0.884186 0.400083
vt 0.880619 0.400083
vt 0.303206 0.693525
vt 0.303206 0.769698
vt 0.315845 0.845870
vt 0.322165 0.845870
vt 0.875366 0.880584
vt 0.875366 0.804411
vt 0.878933 0.804411
vt 0.878933 0.880584
vt 0.315846 0.693525
vt 0.309526 0.693525
vt 0.596198 0.885427
vt 0.599765 0.885427
vt 0.877053 0.552428
vt 0.877053 0.476255
vt 0.880619 0.476255
vt 0.880619 0.552428
vt 0.303206 0.845870
vt 0.303206 0.769698
vt 0.309526 0.769698
vt 0.309526 0.845870
vt 0.393185 0.196599
vt 0.386865 0.196599
vt 0.812136 0.472900
vt 0.812136 0.396727
vt 0.815703 0.396727
vt 0.815703 0.472900
vt 0.836693 0.552427
vt 0.836693 0.476255
vt 0.843013 0.476255
vt 0.843013 0.552427
vt 0.862786 0.400082
vt 0.859219 0.400082
vt 0.284246 0.693525
vt 0.284246 0.769697
vt 0.277926 0.769697
vt 0.277926 0.693525
vt 0.241653 0.692209
vt 0.241653 0.768381
vt 0.238086 0.768381
vt 0.238086 0.692209
vt 0.866353 0.400083
vt 0.862786 0.400083
vt 0.156755 0.857554
vt 0.156755 0.781382
vt 0.160321 0.781382
vt 0.160321 0.857554
vt 0.290566 0.693525
vt 0.284246 0.693525
vt 0.849333 0.476255
vt 0.849333 0.552427
vt 0.869919 0.400082
vt 0.866353 0.400082
vt 0.855652 0.400083
vt 0.855652 0.476255
vt 0.849333 0.476255
vt 0.849333 0.400083
vt 0.859219 0.400083
vt 0.859219 0.476255
vt 0.855653 0.476255
vt 0.855653 0.400083
vt 0.873486 0.400083
vt 0.869919 0.400083
vt 0.290566 0.845871
vt 0.296886 0.845871
vt 0.812136 0.320555
vt 0.815703 0.320555
vt 0.836693 0.400083
vt 0.843013 0.400083
vt 0.873486 0.400082
vt 0.877053 0.400082
vt 0.284246 0.845870
vt 0.277926 0.845870
vt 0.241653 0.844554
vt 0.238086 0.844554
vt 0.875366 0.575893
vt 0.878933 0.575893
vt 0.470090 0.635342
vt 0.476410 0.635342
vt 0.156755 0.705209
vt 0.160321 0.705209
vt 0.303206 0.845871
vt 0.849333 0.400083
vt 0.875366 0.728239
vt 0.878933 0.728239
vt 0.855652 0.552427
vt 0.849333 0.552427
vt 0.859219 0.552427
vt 0.855653 0.552427
vt 0.877053 0.400083
vt 0.880619 0.400083
vt 0.303206 0.693525
vt 0.580236 0.316414
vt 0.570606 0.316414
vt 0.570606 0.306785
vt 0.580236 0.306785
vt 0.589865 0.316414
vt 0.580236 0.316414
vt 0.580236 0.306785
vt 0.589865 0.306785
vt 0.951854 0.792958
vt 0.951854 0.400082
vt 0.961483 0.400082
vt 0.961483 0.792958
vt 0.922966 0.792958
vt 0.922966 0.400083
vt 0.932595 0.400083
vt 0.932595 0.792958
vt 0.971112 0.392876
vt 0.961483 0.392876
vt 0.961483 -0.000000
vt 0.971112 -0.000000
vt 0.932595 0.392876
vt 0.932595 0.000000
vt 0.942225 0.000000
vt 0.942224 0.392876
vt 0.656678 0.320555
vt 0.656678 0.310926
vt 0.666307 0.310926
vt 0.666307 0.320555
vt 0.675937 0.310926
vt 0.675937 0.320555
vt 1.000000 0.392876
vt 0.990371 0.392876
vt 0.990371 -0.000000
vt 1.000000 -0.000000
vt 0.971112 0.792958
vt 0.961483 0.792958
vt 0.961483 0.400082
vt 0.971112 0.400082
vt 0.932595 0.792958
vt 0.932595 0.400083
vt 0.942225 0.400083
vt 0.942225 0.792958
vt 0.990371 0.392876
vt 0.980742 0.392876
vt 0.980742 0.000000
vt 0.990371 0.000000
vt 0.599494 0.306785
vt 0.599494 0.316414
vt 0.589865 0.316414
vt 0.589865 0.306785
vt 0.609123 0.306785
vt 0.609123 0.316414
vt 0.599494 0.316414
vt 0.599494 0.306785
vt 0.951854 0.392876
vt 0.942225 0.392876
vt 0.942225 0.000000
vt 0.951854 0.000000
vt 0.384947 0.974501
vt 0.375318 0.974501
vt 0.375318 0.581625
vt 0.384948 0.581625
vt 0.942225 0.792958
vt 0.942225 0.400083
vt 0.951854 0.400083
vt 0.951854 0.792958
vt 0.980742 0.392876
vt 0.971112 0.392876
vt 0.971112 -0.000000
vt 0.980742 -0.000000
vt 0.685566 0.310926
vt 0.685566 0.320555
vt 0.695195 0.310926
vt 0.695195 0.320555
vt 0.980742 0.792958
vt 0.980742 0.400083
vt 0.990371 0.400083
vt 0.990371 0.792958
vt 0.951854 0.392876
vt 0.951854 0.000000
vt 0.961483 0.000000
vt 0.961483 0.392876
vt 0.980742 0.792958
vt 0.971112 0.792958
vt 0.971112 0.400083
vt 0.980742 0.400083
vt 0.990371 0.792958
vt 0.990371 0.400082
vt 1.000000 0.400082
vt 1.000000 0.792958
vt 0.780361 0.399967
vt 0.793815 0.351422
vt 0.799377 0.346484
vt 0.782551 0.407197
vt 0.091990 0.711209
vt 0.091990 0.761539
vt 0.082097 0.768154
vt 0.082097 0.705209
vt 0.728531 0.334564
vt 0.729055 0.328325
vt 0.070931 0.399261
vt 0.008261 0.418282
vt 0.000862 0.414101
vt 0.082097 0.389445
vt 0.724770 0.320555
vt 0.802244 0.340560
vt 0.000000 0.407599
vt 0.074372 0.385026
vt 0.621854 0.739783
vt 0.624308 0.789845
vt 0.616120 0.795559
vt 0.616120 0.733082
vt 0.073290 0.451104
vt 0.082098 0.455263
vt 0.726654 0.386159
vt 0.724770 0.392396
vt 0.021854 0.466785
vt 0.017862 0.474760
vt 0.569809 0.759135
vt 0.569810 0.739517
vt 0.573907 0.733082
vt 0.573907 0.796027
vt 0.121394 0.711689
vt 0.121394 0.731325
vt 0.111638 0.768211
vt 0.111638 0.705210
vt 0.814593 0.189117
vt 0.811721 0.188524
vt 0.802783 0.180219
vt 0.813359 0.182560
vt 0.568067 0.571339
vt 0.567163 0.571194
vt 0.560975 0.564395
vt 0.578987 0.565033
vt 0.810780 0.208378
vt 0.801126 0.244357
vt 0.567163 0.590813
vt 0.560975 0.627340
vt 0.560975 0.758958
vt 0.560975 0.739323
vt 0.565121 0.733082
vt 0.565121 0.796078
vt 0.101882 0.711209
vt 0.101882 0.730828
vt 0.091990 0.768154
vt 0.091990 0.705210
vt 0.357004 0.766205
vt 0.354135 0.765686
vt 0.345203 0.757677
vt 0.355749 0.759322
vt 0.468648 0.262517
vt 0.467739 0.262857
vt 0.459908 0.258812
vt 0.477387 0.253428
vt 0.353208 0.785454
vt 0.343571 0.821077
vt 0.473188 0.281723
vt 0.477387 0.319339
vt 0.314766 0.680794
vt 0.304108 0.630202
vt 0.311294 0.623630
vt 0.321094 0.686930
vt 0.008874 0.708541
vt 0.010052 0.759491
vt -0.000000 0.767824
vt -0.000000 0.703966
vt 0.247371 0.629387
vt 0.248332 0.622826
vt 0.534414 0.558275
vt 0.479374 0.572066
vt 0.477549 0.565627
vt 0.543645 0.549206
vt 0.596198 0.739369
vt 0.596198 0.789745
vt 0.591466 0.796083
vt 0.591466 0.733082
vt 0.548271 0.606660
vt 0.560975 0.609718
vt 0.248330 0.679708
vt 0.249531 0.685759
vt 0.483787 0.622680
vt 0.477387 0.630485
vt 0.322265 0.693525
vt 0.243425 0.692236
vt 0.556738 0.617546
vt 0.480214 0.636558
vt 0.718393 0.295768
vt 0.707734 0.245176
vt 0.714921 0.238604
vt 0.724721 0.301903
vt 0.058594 0.708652
vt 0.059582 0.759557
vt 0.049771 0.767719
vt 0.049771 0.703967
vt 0.650998 0.244361
vt 0.651958 0.237800
vt 0.450225 0.557059
vt 0.395184 0.570850
vt 0.393360 0.564411
vt 0.459455 0.547990
vt 0.569809 0.739361
vt 0.569809 0.789732
vt 0.464082 0.605444
vt 0.476785 0.608502
vt 0.651957 0.294682
vt 0.653158 0.300733
vt 0.399597 0.621465
vt 0.393198 0.629269
vt 0.725892 0.308499
vt 0.647052 0.307209
vt 0.472549 0.616330
vt 0.396025 0.635342
vt 0.176107 0.441624
vt 0.173406 0.421932
vt 0.175040 0.385026
vt 0.186911 0.448134
vt 0.126234 0.742573
vt 0.130226 0.761936
vt 0.121394 0.770327
vt 0.121394 0.705209
vt 0.792106 0.641998
vt 0.786899 0.660913
vt 0.780698 0.665692
vt 0.797405 0.605005
vt 0.087336 0.442754
vt 0.082097 0.423831
vt 0.083099 0.385026
vt 0.099906 0.445739
vt 0.173059 0.441566
vt 0.173928 0.448018
vt 0.084394 0.443567
vt 0.082890 0.450845
vt 0.660546 0.377132
vt 0.657915 0.357435
vt 0.659882 0.320555
vt 0.671325 0.383670
vt 0.135066 0.742573
vt 0.139058 0.761936
vt 0.130226 0.770327
vt 0.130226 0.705209
vt 0.793228 0.066105
vt 0.788020 0.085020
vt 0.781820 0.089799
vt 0.798527 0.029112
vt 0.482789 0.057703
vt 0.477387 0.038825
vt 0.478162 -0.000000
vt 0.495493 0.060571
vt 0.657494 0.377065
vt 0.658531 0.383537
vt 0.479857 0.058538
vt 0.478000 0.065912
vt 0.246849 0.441845
vt 0.243425 0.422293
vt 0.243800 0.385027
vt 0.257887 0.447945
vt 0.143860 0.741727
vt 0.147932 0.760844
vt 0.139058 0.769067
vt 0.139058 0.705209
vt 0.794049 0.383429
vt 0.788804 0.402352
vt 0.482789 0.378009
vt 0.477387 0.359149
vt 0.478162 0.320555
vt 0.495492 0.381067
vt 0.243799 0.441908
vt 0.244999 0.447959
vt 0.479857 0.378854
vt 0.478000 0.385413
vt 0.778388 0.658646
vt 0.791746 0.610121
vt 0.111638 0.711689
vt 0.111638 0.762064
vt 0.101882 0.768211
vt 0.101882 0.705209
vt 0.728349 0.590229
vt 0.729115 0.583577
vt 0.633566 0.335704
vt 0.567163 0.333352
vt 0.560975 0.326553
vt 0.647049 0.329602
vt 0.724771 0.575893
vt 0.800005 0.599500
vt 0.562020 0.320555
vt 0.640821 0.323347
vt 0.605493 0.739881
vt 0.607966 0.790932
vt 0.599765 0.796636
vt 0.599765 0.733082
vt 0.621727 0.385727
vt 0.629037 0.391908
vt 0.726324 0.642192
vt 0.724771 0.647907
vt 0.567163 0.383682
vt 0.560975 0.389497
vt 0.236281 0.679585
vt 0.227278 0.629276
vt 0.234641 0.623162
vt 0.242353 0.686037
vt 0.018884 0.708625
vt 0.019902 0.760250
vt 0.010052 0.769084
vt 0.010052 0.703967
vt 0.169745 0.629218
vt 0.170837 0.623046
vt 0.137403 0.623619
vt 0.083769 0.639641
vt 0.082307 0.633728
vt 0.146605 0.614436
vt 0.578617 0.739443
vt 0.578617 0.789773
vt 0.150841 0.672164
vt 0.163411 0.675149
vt 0.168856 0.679585
vt 0.169725 0.686037
vt 0.088111 0.690986
vt 0.082097 0.699547
vt 0.243425 0.692209
vt 0.163411 0.692209
vt 0.159068 0.682874
vt 0.084625 0.705209
vt 0.650476 0.056819
vt 0.647052 0.037267
vt 0.647427 0.000000
vt 0.661514 0.062918
vt 0.152778 0.741721
vt 0.156755 0.760870
vt 0.147932 0.768962
vt 0.147932 0.705209
vt 0.867450 0.637851
vt 0.862241 0.656782
vt 0.856037 0.661657
vt 0.872751 0.600918
vt 0.398599 0.376793
vt 0.393198 0.357933
vt 0.393973 0.319340
vt 0.411303 0.379852
vt 0.647426 0.056882
vt 0.648626 0.062933
vt 0.395667 0.377638
vt 0.393811 0.384197
vt 0.779509 0.082753
vt 0.792868 0.034228
vt 0.049771 0.710452
vt 0.049771 0.760823
vt 0.039761 0.766963
vt 0.039761 0.703966
vt 0.729471 0.014335
vt 0.730236 0.007684
vt 0.633569 0.015149
vt 0.567166 0.012797
vt 0.560977 0.005998
vt 0.647052 0.009047
vt 0.725892 -0.000000
vt 0.801126 0.023607
vt 0.562022 0.000000
vt 0.640824 0.002791
vt 0.613708 0.739835
vt 0.616121 0.790807
vt 0.607967 0.796570
vt 0.607967 0.733082
vt 0.621729 0.065172
vt 0.629039 0.071353
vt 0.727446 0.066298
vt 0.725892 0.072013
vt 0.567166 0.063127
vt 0.560977 0.068942
vt 0.578617 0.759135
vt 0.578617 0.739517
vt 0.582715 0.733082
vt 0.582715 0.796027
vt 0.039761 0.710452
vt 0.039761 0.730087
vt 0.029751 0.766963
vt 0.029751 0.703967
vt 0.176510 0.880685
vt 0.173669 0.880126
vt 0.164798 0.871933
vt 0.175051 0.874094
vt 0.568070 0.250784
vt 0.567166 0.250639
vt 0.560977 0.243840
vt 0.578990 0.244478
vt 0.172882 0.899983
vt 0.163411 0.936011
vt 0.567166 0.270258
vt 0.587425 0.758962
vt 0.587425 0.739326
vt 0.069474 0.709966
vt 0.069474 0.729585
vt 0.059582 0.766911
vt 0.059582 0.703966
vt 0.372878 0.766205
vt 0.370009 0.765685
vt 0.361077 0.757677
vt 0.371623 0.759322
vt 0.073291 0.647179
vt 0.072497 0.647489
vt 0.065098 0.643308
vt 0.082097 0.638148
vt 0.369082 0.785453
vt 0.359445 0.821077
vt 0.077796 0.666395
vt 0.082098 0.703967
vt 0.717885 0.615048
vt 0.709448 0.564755
vt 0.716938 0.558671
vt 0.723977 0.621520
vt 0.028734 0.708625
vt 0.029751 0.760249
vt 0.019902 0.769084
vt 0.019902 0.703966
vt 0.653472 0.564689
vt 0.654780 0.558538
vt 0.534416 0.238144
vt 0.479374 0.254889
vt 0.477549 0.249054
vt 0.543647 0.228873
vt 0.587425 0.739443
vt 0.587425 0.789773
vt 0.548273 0.286576
vt 0.560977 0.289444
vt 0.652392 0.615048
vt 0.653429 0.621520
vt 0.483787 0.306265
vt 0.477387 0.314965
vt 0.724771 0.627670
vt 0.647049 0.627670
vt 0.556741 0.297190
vt 0.480214 0.320555
vt 0.776989 0.412134
vt 0.726831 0.399242
vt 0.073290 0.464294
vt 0.025261 0.478941
vt 0.368377 0.589633
vt 0.369891 0.752988
vt 0.359444 0.581625
vt 0.073290 0.633988
vt 0.375318 0.753829
vt 0.069090 0.635333
vt 0.733608 0.568664
vt 0.735797 0.575893
vt 0.826937 0.406082
vt 0.826937 0.568366
vt 0.817044 0.574981
vt 0.817044 0.400083
vt 0.179549 0.454247
vt 0.172836 0.454189
vt 0.090704 0.454921
vt 0.084352 0.456758
vt 0.783551 0.673075
vt 0.740477 0.829538
vt 0.734277 0.834317
vt 0.134035 0.611451
vt 0.169968 0.616594
vt 0.223836 0.616652
vt 0.083811 0.626451
vt 0.238086 0.696868
vt 0.238086 0.864754
vt 0.229254 0.873145
vt 0.229254 0.692209
vt 0.775040 0.670808
vt 0.726423 0.655435
vt 0.618117 0.398214
vt 0.567163 0.396296
vt 0.810064 0.008304
vt 0.811602 0.175525
vt 0.801126 0.000000
vt 0.571677 0.558853
vt 0.817044 0.176733
vt 0.567163 0.558580
vt 0.731966 0.827272
vt 0.836693 0.406561
vt 0.836693 0.568991
vt 0.826937 0.575138
vt 0.826937 0.400083
vt 0.654328 0.069490
vt 0.647666 0.069494
vt 0.402072 0.388920
vt 0.395635 0.390636
vt 0.858891 0.668954
vt 0.815799 0.825550
vt 0.809595 0.830425
vt 0.446752 0.544932
vt 0.650758 0.231749
vt 0.703882 0.232505
vt 0.395217 0.557852
vt 0.277926 0.698210
vt 0.277926 0.862576
vt 0.269103 0.870667
vt 0.269103 0.693525
vt 0.663835 0.389754
vt 0.657224 0.389687
vt 0.486262 0.069842
vt 0.479825 0.071747
vt 0.784672 0.097182
vt 0.741599 0.253645
vt 0.735398 0.258423
vt 0.530943 0.226006
vt 0.653743 0.552067
vt 0.706158 0.552133
vt 0.479406 0.241680
vt 0.646699 0.631998
vt 0.646699 0.799884
vt 0.637867 0.808275
vt 0.637867 0.627340
vt 0.850383 0.666574
vt 0.801679 0.654356
vt 0.800005 0.647660
vt 0.468648 0.079374
vt 0.419171 0.094674
vt 0.411340 0.090629
vt 0.477387 0.070285
vt 0.352503 0.589633
vt 0.354017 0.752988
vt 0.343571 0.581625
vt 0.468648 0.249308
vt 0.359444 0.753830
vt 0.464236 0.250727
vt 0.807291 0.823170
vt 0.812136 0.326554
vt 0.812136 0.488838
vt 0.802243 0.495453
vt 0.802244 0.320555
vt 0.250701 0.454516
vt 0.244039 0.454520
vt 0.486262 0.390136
vt 0.479824 0.391851
vt 0.785432 0.414519
vt 0.742051 0.571049
vt 0.530941 0.546148
vt 0.247131 0.616775
vt 0.300256 0.617531
vt 0.479406 0.559068
vt 0.269103 0.698099
vt 0.269103 0.862738
vt 0.260229 0.870961
vt 0.260229 0.693525
vt 0.776161 0.094915
vt 0.727544 0.079541
vt 0.618119 0.077659
vt 0.567166 0.075741
vt 0.172283 0.700401
vt 0.173569 0.867163
vt 0.163411 0.692209
vt 0.571680 0.238298
vt 0.178843 0.868277
vt 0.567166 0.238025
vt 0.733087 0.251378
vt 0.386865 0.203084
vt 0.386865 0.365501
vt 0.376855 0.371640
vt 0.853733 0.654401
vt 0.867098 0.605835
vt 0.079367 0.709966
vt 0.079367 0.760296
vt 0.069474 0.766911
vt 0.069474 0.703966
vt 0.803594 0.589816
vt 0.804346 0.583663
vt 0.466129 0.014299
vt 0.401691 0.034146
vt 0.393860 0.030101
vt 0.477387 0.004373
vt 0.800005 0.575893
vt 0.875366 0.594904
vt 0.393198 0.023553
vt 0.469667 0.000000
vt 0.630041 0.739782
vt 0.632495 0.789844
vt 0.624308 0.795558
vt 0.624308 0.733082
vt 0.468648 0.066165
vt 0.801576 0.641313
vt 0.415668 0.082544

# vertex normals
vn -0.301518 0.904531 0.301516
vn -0.301516 -0.904531 0.301516
vn -0.301516 -0.904531 -0.301516
vn -0.301518 0.904530 -0.301516
vn 0.301516 -0.904531 -0.301516
vn 0.301518 0.904530 -0.301516
vn 0.301516 -0.904531 0.301516
vn 0.301518 0.904531 0.301516
vn -0.577340 0.577372 0.577339
vn 0.577340 0.577372 0.577339
vn 0.000000 -1.000000 0.000000
vn 0.577339 -0.577372 0.577339
vn -0.577339 -0.577372 0.577339
vn -0.577339 -0.577372 -0.577339
vn 0.577339 -0.577372 -0.577339
vn 0.591132 0.548748 -0.591133
vn 0.591132 0.548749 0.591132
vn -0.591132 0.548749 0.591132
vn -0.591132 0.548748 -0.591133
vn 0.054699 0.997003 -0.054700
vn 0.054699 0.997003 0.054700
vn -0.054699 0.997003 0.054700
vn -0.054699 0.997003 -0.054700
vn 0.577340 0.577372 -0.577339
vn -0.577340 0.577372 -0.577339
vn 0.577350 -0.577350 -0.577350
vn -0.577350 -0.577350 -0.577350
vn 0.577350 -0.577350 0.577350
vn -0.577350 -0.577350 0.577350
vn 0.577350 0.577350 -0.577350
vn -0.577350 0.577350 -0.577350
vn -0.577350 0.577350 0.577350
vn 0.577350 0.577350 0.577350
vn 0.707107 -0.707107 0.000000
vn 0.707107 0.707107 -0.000000
vn 0.000000 -0.707107 -0.707107
vn 0.000000 -0.707107 0.707107
vn 0.000000 0.707107 -0.707107
vn -0.707107 0.707107 -0.000000
vn 0.000000 0.707107 0.707107
vn -0.707107 -0.707107 0.000000
vn -0.000000 -0.707107 0.707107
vn -0.000000 -0.707107 0.707107
vn -0.000000 -0.707107 -0.707106
vn -0.000002 -0.707106 -0.707107
vn -0.000001 0.707107 0.707107
vn 0.000000 0.707107 0.707107
vn -0.000000 0.707107 -0.707106
vn -0.000003 0.707106 -0.707107
vn -0.000000 -0.707107 0.707107
vn -0.000000 -0.707107 0.707107
vn -0.000000 -0.707107 -0.707106
vn -0.000002 -0.707106 -0.707107
vn -0.000000 0.707107 -0.707106
vn -0.000002 0.707106 -0.707107
vn 0.000000 -0.707107 0.707107
vn 0.000002 -0.707106 -0.707107
vn 0.000001 0.707107 0.707107
vn 0.000003 0.707106 -0.707107
vn 0.000002 -0.707106 -0.707107
vn 0.000002 0.707106 -0.707107
vn 0.693136 0.632722 -0.345291
vn 0.725204 -0.586040 -0.361436
vn 0.716758 0.218458 0.662219
vn 0.792568 -0.023216 0.609341
vn -0.717524 0.001528 -0.696532
vn -0.691703 0.228159 -0.685194
vn -0.829545 -0.515844 -0.213916
vn -0.662217 0.218464 0.716758
vn 0.685197 0.228163 -0.691699
vn 0.223608 0.948681 -0.223615
vn -0.223621 0.948681 -0.223603
vn -0.622338 0.777321 -0.092020
vn 0.076045 0.004995 0.997092
vn 0.032810 -0.017422 -0.999310
vn 0.700959 0.627844 -0.338333
vn 0.435269 -0.582657 0.686333
vn -0.792568 0.023212 0.609342
vn -0.716758 -0.218462 0.662217
vn 0.691701 -0.228159 -0.685196
vn 0.717523 -0.001535 -0.696533
vn -0.242289 -0.412655 -0.878073
vn -0.997092 -0.004997 -0.076044
vn 0.999310 0.017419 -0.032812
vn 0.338300 0.627829 0.700988
vn -0.686328 -0.582652 0.435282
vn -0.609349 0.023215 -0.792562
vn -0.662216 -0.218462 -0.716760
vn 0.685198 -0.228155 0.691700
vn 0.696532 -0.001532 0.717524
vn 0.878072 -0.412663 -0.242280
vn 0.076043 -0.004994 -0.997092
vn 0.032812 0.017422 0.999310
vn -0.213909 0.515835 -0.829552
vn -0.092009 -0.777317 -0.622345
vn 0.997092 -0.004996 0.076043
vn 0.716755 -0.218462 -0.662221
vn -0.691701 -0.228154 0.685197
vn -0.999310 0.017419 0.032811
vn -0.345304 -0.632713 0.693137
vn 0.609345 0.023215 0.792565
vn -0.696534 -0.001534 -0.717522
vn -0.361459 0.586030 0.725201
vn 0.662216 -0.218462 0.716760
vn -0.685198 -0.228159 -0.691699
vn -0.223623 -0.948679 0.223611
vn -0.223610 -0.948680 -0.223617
vn 0.213927 0.515832 0.829550
vn 0.092018 -0.777317 0.622343
vn 0.345294 -0.632717 -0.693139
vn 0.361447 0.586035 -0.725203
vn 0.223624 -0.948680 -0.223603
vn 0.223612 -0.948678 0.223624
vn 0.878069 0.412667 0.242280
vn 0.338286 -0.627834 -0.700990
vn -0.686327 0.582663 -0.435270
vn -0.609345 -0.023217 0.792565
vn 0.696534 0.001533 -0.717522
vn -0.878069 0.412671 -0.242275
vn -0.338248 -0.627798 0.701040
vn 0.662216 0.218455 -0.716762
vn -0.076043 0.004995 -0.997092
vn -0.032808 -0.017418 0.999310
vn -0.685197 0.228157 0.691701
vn 0.686327 0.582656 0.435279
vn 0.609349 -0.023218 -0.792563
vn -0.696533 0.001533 0.717523
vn 0.242303 0.412645 -0.878074
vn -0.700907 -0.627887 -0.338360
vn 0.997092 0.004993 -0.076043
vn -0.999310 -0.017423 -0.032811
vn -0.435265 0.582650 0.686340
vn 0.345297 0.632716 0.693139
vn 0.361452 -0.586030 0.725204
vn 0.213926 -0.515835 -0.829548
vn -0.716756 0.218462 -0.662220
vn 0.691697 0.228156 0.685201
vn 0.223620 0.948679 0.223610
vn 0.092018 0.777317 -0.622343
vn -0.997092 0.004992 0.076044
vn 0.999310 -0.017425 0.032812
vn 0.829544 0.515841 -0.213926
vn 0.622342 -0.777318 -0.092020
vn -0.076044 -0.004994 0.997092
vn -0.032812 0.017418 -0.999310
vn -0.693138 -0.632714 -0.345301
vn -0.725201 0.586034 -0.361451
vn -0.242286 0.412650 0.878076
vn 0.700946 -0.627848 0.338350
vn 0.435273 0.582646 -0.686338
vn -0.792566 -0.023220 -0.609344
vn 0.717522 0.001525 0.696534
vn -0.345301 0.632714 -0.693138
vn -0.361455 -0.586037 -0.725197
vn -0.213915 -0.515838 0.829549
vn -0.223610 0.948678 0.223626
vn -0.092010 0.777317 0.622344
vn -0.700909 0.627887 0.338355
vn -0.435257 -0.582660 -0.686337
vn 0.792565 0.023213 -0.609345
vn -0.717524 -0.001533 0.696532
vn 0.242295 -0.412660 0.878069
vn -0.338319 0.627846 -0.700964
vn 0.686328 -0.582669 -0.435261
vn -0.878070 -0.412666 0.242283
vn -0.829546 0.515839 0.213925
vn -0.622339 -0.777321 0.092016
vn 0.693138 -0.632721 0.345288
vn 0.725207 0.586034 0.361440
vn 0.694295 -0.632531 -0.343307
vn -0.855977 -0.516849 0.013062
vn -0.664637 0.744930 0.057767
vn 0.669948 0.623602 -0.402852
vn 0.664636 -0.744930 0.057771
vn -0.669954 -0.623597 -0.402851
vn -0.694297 0.632524 -0.343314
vn 0.855978 0.516847 0.013062
vn 0.343314 -0.632529 0.694293
vn -0.013061 -0.516859 -0.855971
vn -0.057777 0.744929 -0.664638
vn 0.402856 0.623591 0.669956
vn -0.057774 -0.744937 0.664629
vn 0.402849 -0.623604 -0.669949
vn 0.343312 0.632529 -0.694294
vn -0.013064 0.516857 0.855972
vn -0.664635 -0.744931 -0.057770
vn 0.669950 -0.623600 0.402851
vn 0.694295 0.632530 0.343307
vn -0.855975 0.516852 -0.013066
vn -0.694297 -0.632524 0.343314
vn 0.855977 -0.516848 -0.013066
vn 0.664639 0.744928 -0.057768
vn -0.669955 0.623589 0.402861
vn 0.057781 -0.744933 -0.664633
vn -0.402846 -0.623600 0.669954
vn -0.343308 0.632529 0.694296
vn 0.013069 0.516856 -0.855973
vn -0.343309 -0.632531 -0.694294
vn 0.013066 -0.516860 0.855970
vn 0.057778 0.744933 0.664633
vn -0.402851 0.623595 -0.669955
vn -0.693139 0.632711 0.345303
vn -0.725206 -0.586027 0.361454
vn 0.829548 -0.515832 0.213932
vn 0.622341 0.777318 0.092020

# Mesh
g Cube.009
usemtl DefaultMaterial
f 2/2/2 3/3/3 4/4/4 1/1/1
f 5/7/5 6/8/6 4/5/4 3/6/3
f 5/10/5 7/11/7 8/12/8 6/9/6
f 8/13/8 7/14/7 2/15/2 1/16/1
f 10/20/10 8/17/8 1/18/1 9/19/9
f 12/22/11 13/23/12 14/24/13 11/21/11
f 18/28/15 15/25/11 16/26/11 17/27/14
f 18/28/15 13/23/12 12/22/11 15/25/11
f 16/26/11 11/21/11 14/24/13 17/27/14
f 19/31/16 20/32/17 13/29/12 18/30/15
f 21/35/18 22/36/19 17/33/14 14/34/13
f 13/38/12 20/39/17 21/40/18 14/37/13
f 19/31/16 18/30/15 17/41/14 22/42/19
f 20/43/17 19/44/16 23/45/20 24/46/21
f 25/49/22 26/50/23 22/47/19 21/48/18
f 20/43/17 24/46/21 25/49/22 21/48/18
f 23/45/20 19/44/16 22/47/19 26/50/23
f 24/46/21 23/45/20 26/50/23 25/49/22
f 3/51/3 2/52/2 11/21/11 16/26/11
f 15/25/11 12/22/11 7/53/7 5/54/5
f 15/25/11 5/54/5 3/51/3 16/26/11
f 7/53/7 12/22/11 11/21/11 2/52/2
f 6/56/6 27/57/24 28/58/25 4/55/4
f 1/18/1 4/55/4 28/58/25 9/19/9
f 10/20/10 27/57/24 6/56/6 8/17/8
f 27/60/24 29/61/26 30/62/27 28/59/25
f 27/63/24 10/64/10 31/65/28 29/66/26
f 9/67/9 28/68/25 30/69/27 32/70/29
f 31/74/28 10/71/10 9/72/9 32/73/29
f 29/76/26 31/77/28 32/78/29 30/75/27

# Mesh
g Cube.012
usemtl DefaultMaterial
f 34/80/26 35/81/28 36/82/29 33/79/27
f 40/86/33 37/83/30 38/84/31 39/85/32
f 37/89/30 34/90/26 33/87/27 38/88/31
f 37/92/30 40/93/33 35/94/28 34/91/26
f 39/97/32 38/98/31 33/95/27 36/96/29
f 35/99/28 40/100/33 39/101/32 36/102/29
f 41/103/26 42/104/28 43/105/29 44/106/27
f 47/109/33 48/110/30 45/107/31 46/108/32
f 48/114/30 41/111/26 44/112/27 45/113/31
f 46/114/32 45/116/31 44/115/27 43/111/29
f 48/118/30 47/119/33 42/120/28 41/117/26
f 42/122/28 47/123/33 46/124/32 43/121/29
f 51/127/26 52/128/28 49/125/29 50/126/27
f 53/129/33 54/130/30 55/131/31 56/132/32
f 52/134/28 53/135/33 56/136/32 49/133/29
f 54/139/30 53/140/33 52/137/28 51/138/26
f 56/141/32 55/142/31 50/143/27 49/133/29
f 54/146/30 51/144/26 50/145/27 55/143/31
f 60/150/26 57/147/28 58/148/29 59/149/27
f 62/152/33 63/153/30 64/154/31 61/151/32
f 57/155/28 62/156/33 61/157/32 58/158/29
f 61/133/32 64/143/31 59/145/27 58/159/29
f 63/140/30 62/161/33 57/160/28 60/137/26
f 63/164/30 60/101/26 59/162/27 64/163/31

# Mesh
g Cube.013
usemtl DefaultMaterial
f 66/166/35 67/167/35 68/168/34 65/165/34
f 69/169/36 70/170/37 71/171/37 72/172/36
f 73/173/38 69/174/36 72/175/36 74/176/38
f 67/180/35 66/177/35 75/178/39 76/179/39
f 70/181/37 77/182/40 78/183/40 71/184/37
f 77/185/40 73/186/38 74/187/38 78/188/40
f 65/190/34 68/191/34 80/192/41 79/189/41
f 76/196/39 75/193/39 79/194/41 80/195/41
f 81/197/36 82/198/37 83/199/37 84/200/36
f 86/202/35 87/203/35 88/204/34 85/201/34
f 89/205/38 81/206/36 84/207/36 90/208/38
f 87/212/35 86/209/35 91/210/39 92/211/39
f 82/213/37 93/214/40 94/215/40 83/216/37
f 93/217/40 89/218/38 90/219/38 94/220/40
f 85/222/34 88/223/34 96/224/41 95/221/41
f 92/228/39 91/225/39 95/226/41 96/227/41
f 99/231/39 100/232/39 97/229/41 98/230/41
f 72/172/36 71/171/37 102/234/37 101/233/36
f 74/176/38 72/175/36 101/236/36 103/235/38
f 104/239/35 105/240/35 100/237/39 99/238/39
f 71/184/37 78/183/40 106/242/40 102/241/37
f 78/188/40 74/187/38 103/244/38 106/243/40
f 107/245/34 108/246/34 98/247/41 97/248/41
f 105/249/35 104/250/35 108/251/34 107/252/34
f 84/200/36 83/199/37 110/254/37 109/253/36
f 113/227/39 114/226/39 111/255/41 112/256/41
f 90/208/38 84/207/36 109/258/36 115/257/38
f 116/261/35 117/262/35 114/259/39 113/260/39
f 83/216/37 94/215/40 118/264/40 110/263/37
f 94/220/40 90/219/38 115/266/38 118/265/40
f 119/267/34 120/268/34 112/269/41 111/270/41
f 117/271/35 116/272/35 120/273/34 119/274/34
f 67/167/35 122/276/35 121/275/34 68/168/34
f 126/280/45 123/277/42 124/278/43 125/279/44
f 123/284/42 127/281/46 128/282/47 124/283/43
f 122/285/35 67/180/35 76/179/39 129/286/39
f 131/290/49 126/287/45 125/288/44 130/289/48
f 127/294/46 131/291/49 130/292/48 128/293/47
f 68/191/34 121/296/34 132/295/41 80/192/41
f 129/232/39 76/196/39 80/195/41 132/229/41
f 136/300/53 133/297/50 134/298/51 135/299/52
f 87/203/35 138/302/35 137/301/34 88/204/34
f 133/304/50 139/284/47 140/283/47 134/303/51
f 138/305/35 87/212/35 92/211/39 141/306/39
f 143/310/55 136/307/53 135/308/52 142/309/54
f 139/314/47 143/311/55 142/312/54 140/313/47
f 88/223/34 137/316/34 144/315/41 96/224/41
f 141/317/39 92/228/39 96/227/41 144/318/41
f 146/173/39 99/231/39 98/230/41 145/174/41
f 125/279/44 124/278/43 147/319/56 148/320/57
f 124/283/43 128/282/47 149/321/58 147/322/56
f 150/324/35 104/239/35 99/238/39 146/323/39
f 130/289/48 125/288/44 148/325/57 151/326/59
f 128/293/47 130/292/48 151/327/59 149/328/58
f 108/246/34 152/329/34 145/330/41 98/247/41
f 104/250/35 150/331/35 152/332/34 108/251/34
f 135/299/52 134/298/51 153/333/56 154/334/60
f 156/318/39 113/227/39 112/256/41 155/335/41
f 134/303/51 140/283/47 157/322/47 153/336/56
f 158/338/35 116/261/35 113/260/39 156/337/39
f 142/309/54 135/308/52 154/339/60 159/340/61
f 140/313/47 142/312/54 159/341/61 157/342/47
f 120/268/34 160/343/34 155/344/41 112/269/41
f 116/272/35 158/345/35 160/264/34 120/273/34

# Mesh
g Cube.014
usemtl DefaultMaterial
f 162/347/26 163/348/28 164/349/29 161/346/27
f 168/353/33 165/350/30 166/351/31 167/352/32
f 165/356/30 162/357/26 161/354/27 166/355/31
f 165/359/30 168/360/33 163/361/28 162/358/26
f 167/364/32 166/365/31 161/362/27 164/363/29
f 163/366/28 168/367/33 167/368/32 164/369/29
f 169/370/26 170/371/28 171/372/29 172/373/27
f 175/374/33 176/375/30 173/373/31 174/372/32
f 176/379/30 169/376/26 172/377/27 173/378/31
f 174/382/32 173/383/31 172/380/27 171/381/29
f 176/385/30 175/386/33 170/387/28 169/384/26
f 170/389/28 175/390/33 174/391/32 171/388/29
f 179/394/26 180/395/28 177/392/29 178/393/27
f 181/396/33 182/397/30 183/398/31 184/399/32
f 180/401/28 181/402/33 184/403/32 177/400/29
f 182/406/30 181/407/33 180/404/28 179/405/26
f 184/409/32 183/410/31 178/411/27 177/408/29
f 182/415/30 179/412/26 178/413/27 183/414/31
f 188/375/26 185/374/28 186/416/29 187/417/27
f 190/418/33 191/419/30 192/417/31 189/416/32
f 185/420/28 190/421/33 189/422/32 186/423/29
f 189/425/32 192/426/31 187/427/27 186/424/29
f 191/430/30 190/431/33 185/428/28 188/429/26
f 191/434/30 188/435/26 187/432/27 192/433/31

# Mesh
g Plane.006
usemtl DefaultMaterial
f 193/436/62 194/437/63 195/438/64 196/439/65
f 194/440/63 193/441/62 197/442/66 198/443/67
f 199/444/68 200/445/69 195/438/64 194/437/63
f 201/449/70 199/446/68 194/447/63 198/448/67
f 200/445/69 202/450/71 203/451/72 195/438/64
f 202/453/71 201/449/70 198/448/67 203/452/72
f 200/457/69 199/454/68 204/455/73 205/456/74
f 199/446/68 201/449/70 206/459/75 204/458/73
f 205/461/74 204/460/73 193/436/62 196/439/65
f 204/458/73 206/459/75 197/463/66 193/462/62
f 207/464/76 208/465/77 209/466/78 210/467/79
f 211/470/80 212/471/81 208/468/77 207/469/76
f 208/472/77 213/473/82 214/474/83 209/475/78
f 212/478/81 215/479/84 213/476/82 208/477/77
f 213/473/82 207/480/76 210/481/79 214/474/83
f 215/479/84 211/483/80 207/482/76 213/476/82
f 218/486/87 219/487/88 216/484/85 217/485/86
f 220/490/89 221/491/90 217/488/86 216/489/85
f 218/495/87 217/492/86 222/493/91 223/494/92
f 217/497/86 221/498/90 224/499/93 222/496/91
f 216/500/85 219/501/88 223/494/92 222/493/91
f 220/503/89 216/502/85 222/496/91 224/499/93
f 227/506/96 228/507/97 225/504/94 226/505/95
f 226/508/95 225/509/94 229/510/98 230/511/99
f 232/513/101 227/506/96 226/505/95 231/512/100
f 231/514/100 226/515/95 230/516/99 233/517/102
f 235/520/104 232/521/101 231/518/100 234/519/103
f 234/522/103 231/514/100 233/517/102 236/523/105
f 228/507/97 235/525/104 234/524/103 225/504/94
f 225/526/94 234/522/103 236/523/105 229/527/98
f 235/525/104 228/507/97 237/528/106 238/529/107
f 238/530/107 237/531/106 229/527/98 236/523/105
f 239/532/108 240/533/109 214/534/83 210/535/79
f 211/538/80 215/539/84 240/536/109 239/537/108
f 240/533/109 241/540/110 218/541/87 214/534/83
f 215/544/84 221/545/90 241/542/110 240/543/109
f 241/546/110 242/547/111 219/487/88 218/486/87
f 221/545/90 220/549/89 242/548/111 241/542/110
f 242/550/111 239/532/108 210/535/79 219/551/88
f 220/549/89 211/553/80 239/552/108 242/548/111
f 243/554/112 244/555/113 219/551/88 210/535/79
f 211/553/80 220/549/89 244/556/113 243/557/112
f 246/559/115 200/560/69 205/561/74 245/558/114
f 201/565/70 246/562/115 245/563/114 206/564/75
f 248/568/117 200/569/69 246/566/115 247/567/116
f 201/572/70 249/573/118 247/570/116 246/571/115
f 248/575/117 247/574/116 245/558/114 205/561/74
f 247/570/116 249/573/118 206/577/75 245/576/114
f 253/581/122 250/578/119 251/579/120 252/580/121
f 250/583/119 254/584/123 255/585/124 251/582/120
f 251/586/120 256/587/125 257/588/126 252/589/121
f 256/590/125 251/591/120 255/592/124 258/593/127
f 250/578/119 253/581/122 257/595/126 256/594/125
f 254/597/123 250/596/119 256/590/125 258/593/127
f 195/600/64 261/601/130 259/598/128 260/599/129
f 260/602/129 259/603/128 262/604/131 198/605/67
f 196/439/65 195/438/64 260/606/129 263/607/132
f 263/608/132 260/609/129 198/610/67 197/611/66
f 261/601/130 196/613/65 263/612/132 259/598/128
f 259/614/128 263/608/132 197/611/66 262/615/131
f 264/616/133 265/617/134 200/569/69 248/568/117
f 249/620/118 201/621/70 265/618/134 264/619/133
f 265/617/134 266/622/135 267/623/136 200/569/69
f 201/626/70 268/627/137 266/624/135 265/625/134
f 269/628/138 202/629/71 200/569/69 267/623/136
f 268/627/137 201/626/70 202/630/71 269/631/138
f 266/632/135 270/633/139 271/634/140 267/635/136
f 268/627/137 272/637/141 270/636/139 266/624/135
f 270/638/139 264/616/133 248/568/117 271/639/140
f 272/637/141 249/641/118 264/640/133 270/636/139
f 274/643/143 275/644/144 235/645/104 273/642/142
f 276/649/145 274/646/143 273/647/142 236/648/105
f 277/650/146 209/651/78 275/644/144 274/643/143
f 212/655/81 277/652/146 274/653/143 276/654/145
f 210/467/79 209/466/78 277/656/146 278/657/147
f 212/655/81 211/659/80 278/658/147 277/652/146
f 210/661/79 278/660/147 273/642/142 235/645/104
f 278/658/147 211/659/80 236/663/105 273/662/142
f 243/665/112 210/661/79 235/645/104 238/664/107
f 211/659/80 243/666/112 238/667/107 236/663/105
f 279/668/148 280/669/149 267/670/136 271/671/140
f 272/674/141 268/675/137 280/672/149 279/673/148
f 280/676/149 281/677/150 282/678/151 267/679/136
f 268/682/137 283/683/152 281/680/150 280/681/149
f 281/684/150 279/668/148 271/671/140 282/685/151
f 283/683/152 272/687/141 279/686/148 281/680/150
f 252/589/121 257/588/126 284/688/153 285/689/154
f 285/690/154 284/691/153 258/692/127 255/693/124
f 195/695/64 252/589/121 285/689/154 286/694/155
f 286/696/155 285/697/154 255/698/124 198/699/67
f 252/589/121 195/695/64 203/700/72 287/701/156
f 287/702/156 203/703/72 198/699/67 255/698/124
f 261/706/130 195/707/64 286/704/155 288/705/157
f 288/708/157 286/696/155 198/699/67 262/709/131
f 257/588/126 261/711/130 288/710/157 284/688/153
f 284/712/153 288/708/157 262/709/131 258/713/127
f 291/716/160 228/717/97 289/714/158 290/715/159
f 290/718/159 289/719/158 229/720/98 292/721/161
f 227/724/96 291/725/160 290/722/159 293/723/162
f 293/726/162 290/727/159 292/728/161 230/729/99
f 228/731/97 227/724/96 293/723/162 289/730/158
f 289/732/158 293/726/162 230/729/99 229/108/98
f 294/733/163 295/734/164 232/521/101 235/520/104
f 295/735/164 294/736/163 236/737/105 233/738/102
f 296/740/165 275/741/144 232/742/101 295/739/164
f 276/746/145 296/743/165 295/744/164 233/745/102
f 275/741/144 296/740/165 294/747/163 235/748/104
f 296/743/165 276/746/145 236/750/105 294/749/163
f 219/754/88 297/751/166 298/752/167 223/753/92
f 297/756/166 220/757/89 224/758/93 298/755/167
f 223/753/92 298/752/167 299/759/168 291/760/160
f 298/762/167 224/763/93 292/764/161 299/761/168
f 299/765/168 300/766/169 228/717/97 291/716/160
f 300/767/169 299/761/168 292/764/161 229/768/98
f 297/751/166 219/754/88 228/770/97 300/769/169
f 220/772/89 297/771/166 300/767/169 229/768/98
f 219/754/88 244/773/113 237/774/106 228/770/97
f 244/776/113 220/772/89 229/768/98 237/775/106
f 302/778/171 205/461/74 196/439/65 301/777/170
f 206/459/75 302/779/171 301/780/170 197/463/66
f 205/783/74 302/781/171 303/782/172 275/741/144
f 302/779/171 206/459/75 276/746/145 303/784/172
f 275/741/144 303/782/172 304/785/173 232/742/101
f 303/784/172 276/746/145 233/745/102 304/786/173
f 304/787/173 301/777/170 196/439/65 232/788/101
f 301/789/170 304/790/173 233/791/102 197/792/66
f 306/794/175 248/575/117 205/561/74 305/793/174
f 249/573/118 306/795/175 305/796/174 206/577/75
f 209/799/78 248/568/117 306/797/175 307/798/176
f 249/573/118 212/655/81 307/800/176 306/795/175
f 209/651/78 307/801/176 308/802/177 275/644/144
f 307/800/176 212/655/81 276/654/145 308/803/177
f 305/793/174 205/561/74 275/644/144 308/802/177
f 206/807/75 305/804/174 308/805/177 276/806/145
f 309/808/178 310/809/179 271/639/140 248/568/117
f 249/641/118 272/637/141 310/810/179 309/811/178
f 310/812/179 311/813/180 214/474/83 271/814/140
f 272/637/141 215/479/84 311/815/180 310/810/179
f 311/813/180 312/816/181 209/475/78 214/474/83
f 215/479/84 212/478/81 312/817/181 311/815/180
f 312/818/181 309/808/178 248/568/117 209/799/78
f 212/821/81 249/822/118 309/819/178 312/820/181
f 313/823/182 314/824/183 282/685/151 271/671/140
f 272/687/141 283/683/152 314/825/183 313/826/182
f 314/827/183 315/828/184 218/829/87 282/678/151
f 283/683/152 221/545/90 315/830/184 314/825/183
f 315/831/184 316/832/185 214/534/83 218/541/87
f 221/545/90 215/544/84 316/833/185 315/830/184
f 316/832/185 313/823/182 271/671/140 214/534/83
f 215/836/84 272/837/141 313/834/182 316/835/185
f 253/581/122 317/838/186 318/839/187 257/595/126
f 317/841/186 254/597/123 258/593/127 318/840/187
f 318/842/187 319/843/188 291/844/160 257/588/126
f 319/845/188 318/840/187 258/593/127 292/764/161
f 320/847/189 223/753/92 291/760/160 319/846/188
f 224/763/93 320/848/189 319/845/188 292/764/161
f 223/753/92 320/847/189 317/838/186 253/581/122
f 320/850/189 224/851/93 254/852/123 317/849/186
f 282/678/151 321/853/190 322/854/191 253/855/122
f 321/857/190 283/858/152 254/859/123 322/856/191
f 323/861/192 223/494/92 253/862/122 322/860/191
f 224/499/93 323/863/192 322/856/191 254/859/123
f 324/864/193 218/495/87 223/494/92 323/861/192
f 221/498/90 324/865/193 323/863/192 224/499/93
f 282/678/151 218/829/87 324/866/193 321/853/190
f 221/869/90 283/870/152 321/867/190 324/868/193
f 196/613/65 261/601/130 325/871/194 326/872/195
f 326/873/195 325/874/194 262/615/131 197/611/66
f 232/788/101 196/439/65 326/875/195 327/876/196
f 327/877/196 326/873/195 197/611/66 233/517/102
f 227/506/96 232/513/101 327/878/196 328/879/197
f 328/880/197 327/877/196 233/517/102 230/516/99
f 261/601/130 227/506/96 328/879/197 325/871/194
f 325/881/194 328/882/197 230/883/99 262/884/131
f 261/711/130 257/588/126 329/885/198 330/886/199
f 330/887/199 329/888/198 258/713/127 262/709/131
f 227/724/96 261/891/130 330/889/199 331/890/200
f 331/892/200 330/887/199 262/709/131 230/729/99
f 291/725/160 227/724/96 331/890/200 332/893/201
f 332/894/201 331/892/200 230/729/99 292/728/161
f 257/588/126 291/844/160 332/895/201 329/885/198
f 329/896/198 332/897/201 292/898/161 258/78/127
f 267/679/136 282/678/151 333/899/202 334/900/203
f 283/903/152 268/904/137 334/901/203 333/902/202
f 267/679/136 334/900/203 335/905/204 252/906/121
f 334/908/203 268/909/137 255/910/124 335/907/204
f 269/912/138 267/679/136 252/906/121 287/911/156
f 268/909/137 269/913/138 287/914/156 255/910/124
f 336/916/205 253/917/122 252/918/121 335/915/204
f 254/859/123 336/919/205 335/907/204 255/910/124
f 333/899/202 282/678/151 253/855/122 336/920/205
f 283/858/152 333/921/202 336/919/205 254/859/123
